<mxfile host="app.diagrams.net" modified="2023-10-20T13:41:36.247Z" agent="Mozilla/5.0 (X11; Ubuntu; Linux x86_64; rv:109.0) Gecko/20100101 Firefox/118.0" etag="xaqlokTU1xKam8aB7mgR" version="22.0.6" type="device">
  <diagram name="Page-1" id="cX5Nr_QrJeYh4_xYCLm1">
    <mxGraphModel dx="1021" dy="651" grid="1" gridSize="10" guides="1" tooltips="1" connect="1" arrows="1" fold="1" page="1" pageScale="1" pageWidth="1100" pageHeight="850" background="#030303" math="0" shadow="0">
      <root>
        <mxCell id="0" />
        <mxCell id="1" parent="0" />
        <mxCell id="g-rzYTZ_cfiE1wiw2gDc-7" value="" style="rounded=1;whiteSpace=wrap;html=1;fillColor=#1ba1e2;strokeColor=#006EAF;fontColor=#ffffff;" vertex="1" parent="1">
          <mxGeometry x="380" y="235" width="250" height="275" as="geometry" />
        </mxCell>
        <mxCell id="g-rzYTZ_cfiE1wiw2gDc-8" style="edgeStyle=orthogonalEdgeStyle;rounded=0;orthogonalLoop=1;jettySize=auto;html=1;strokeColor=#FFFFFF;" edge="1" parent="1" source="g-rzYTZ_cfiE1wiw2gDc-3">
          <mxGeometry relative="1" as="geometry">
            <mxPoint x="380" y="370" as="targetPoint" />
          </mxGeometry>
        </mxCell>
        <mxCell id="g-rzYTZ_cfiE1wiw2gDc-3" value="" style="rounded=1;whiteSpace=wrap;html=1;fillColor=#869EB5;strokeColor=#314354;fontColor=#ffffff;" vertex="1" parent="1">
          <mxGeometry x="100" y="280" width="160" height="180" as="geometry" />
        </mxCell>
        <mxCell id="g-rzYTZ_cfiE1wiw2gDc-1" value="Envoy side car" style="rounded=1;whiteSpace=wrap;html=1;fillColor=#0050ef;strokeColor=#001DBC;fontColor=#ffffff;" vertex="1" parent="1">
          <mxGeometry x="120" y="390" width="120" height="40" as="geometry" />
        </mxCell>
        <mxCell id="g-rzYTZ_cfiE1wiw2gDc-2" value="Application Container" style="rounded=1;whiteSpace=wrap;html=1;fillColor=#0050ef;strokeColor=#001DBC;fontColor=#ffffff;" vertex="1" parent="1">
          <mxGeometry x="120" y="330" width="120" height="40" as="geometry" />
        </mxCell>
        <mxCell id="g-rzYTZ_cfiE1wiw2gDc-5" value="Grpc envoy logs processor" style="rounded=1;whiteSpace=wrap;html=1;fillColor=#d5e8d4;strokeColor=#82b366;" vertex="1" parent="1">
          <mxGeometry x="446" y="270" width="120" height="60" as="geometry" />
        </mxCell>
        <mxCell id="g-rzYTZ_cfiE1wiw2gDc-21" style="edgeStyle=orthogonalEdgeStyle;rounded=0;orthogonalLoop=1;jettySize=auto;html=1;entryX=0.5;entryY=0;entryDx=0;entryDy=0;strokeColor=#FFFFFF;" edge="1" parent="1" source="g-rzYTZ_cfiE1wiw2gDc-6" target="g-rzYTZ_cfiE1wiw2gDc-20">
          <mxGeometry relative="1" as="geometry" />
        </mxCell>
        <mxCell id="g-rzYTZ_cfiE1wiw2gDc-6" value="&lt;div&gt;K8s SharedInformer&lt;/div&gt;&lt;div&gt;(data enrichment)&lt;br&gt;&lt;/div&gt;" style="rounded=1;whiteSpace=wrap;html=1;fillColor=#d5e8d4;strokeColor=#82b366;" vertex="1" parent="1">
          <mxGeometry x="446" y="410" width="120" height="60" as="geometry" />
        </mxCell>
        <mxCell id="g-rzYTZ_cfiE1wiw2gDc-11" value="" style="endArrow=classic;html=1;rounded=0;entryX=0;entryY=0.5;entryDx=0;entryDy=0;strokeColor=#F5F5F5;" edge="1" parent="1" target="g-rzYTZ_cfiE1wiw2gDc-5">
          <mxGeometry width="50" height="50" relative="1" as="geometry">
            <mxPoint x="380" y="370" as="sourcePoint" />
            <mxPoint x="430" y="320" as="targetPoint" />
            <Array as="points">
              <mxPoint x="410" y="370" />
              <mxPoint x="410" y="300" />
            </Array>
          </mxGeometry>
        </mxCell>
        <mxCell id="g-rzYTZ_cfiE1wiw2gDc-12" value="" style="endArrow=classic;html=1;rounded=0;exitX=0.5;exitY=0;exitDx=0;exitDy=0;entryX=0.5;entryY=1;entryDx=0;entryDy=0;strokeColor=#FFFFFF;" edge="1" parent="1" source="g-rzYTZ_cfiE1wiw2gDc-6" target="g-rzYTZ_cfiE1wiw2gDc-5">
          <mxGeometry width="50" height="50" relative="1" as="geometry">
            <mxPoint x="500" y="410" as="sourcePoint" />
            <mxPoint x="550" y="360" as="targetPoint" />
          </mxGeometry>
        </mxCell>
        <mxCell id="g-rzYTZ_cfiE1wiw2gDc-14" value="" style="rounded=1;whiteSpace=wrap;html=1;fillColor=#cce5ff;strokeColor=#36393d;" vertex="1" parent="1">
          <mxGeometry x="690" y="342" width="160" height="60" as="geometry" />
        </mxCell>
        <mxCell id="g-rzYTZ_cfiE1wiw2gDc-15" value="External Interfaces" style="text;html=1;strokeColor=none;fillColor=none;align=center;verticalAlign=middle;whiteSpace=wrap;rounded=0;fontStyle=1" vertex="1" parent="1">
          <mxGeometry x="740" y="355" width="60" height="30" as="geometry" />
        </mxCell>
        <mxCell id="g-rzYTZ_cfiE1wiw2gDc-16" value="Application POD" style="text;html=1;strokeColor=none;fillColor=none;align=center;verticalAlign=middle;whiteSpace=wrap;rounded=0;fontStyle=1" vertex="1" parent="1">
          <mxGeometry x="150" y="290" width="60" height="30" as="geometry" />
        </mxCell>
        <mxCell id="g-rzYTZ_cfiE1wiw2gDc-17" value="&lt;div&gt;ALS &lt;br&gt;&lt;/div&gt;&lt;div&gt;log&lt;br&gt;&lt;/div&gt;" style="text;html=1;strokeColor=none;fillColor=none;align=center;verticalAlign=middle;whiteSpace=wrap;rounded=0;" vertex="1" parent="1">
          <mxGeometry x="386" y="270" width="60" height="30" as="geometry" />
        </mxCell>
        <mxCell id="g-rzYTZ_cfiE1wiw2gDc-18" value="Data Enrichment" style="text;html=1;strokeColor=none;fillColor=none;align=center;verticalAlign=middle;whiteSpace=wrap;rounded=0;" vertex="1" parent="1">
          <mxGeometry x="440" y="360" width="60" height="30" as="geometry" />
        </mxCell>
        <mxCell id="g-rzYTZ_cfiE1wiw2gDc-19" style="edgeStyle=orthogonalEdgeStyle;rounded=0;orthogonalLoop=1;jettySize=auto;html=1;exitX=0.5;exitY=1;exitDx=0;exitDy=0;" edge="1" parent="1" source="g-rzYTZ_cfiE1wiw2gDc-18" target="g-rzYTZ_cfiE1wiw2gDc-18">
          <mxGeometry relative="1" as="geometry" />
        </mxCell>
        <mxCell id="g-rzYTZ_cfiE1wiw2gDc-20" value="&lt;div&gt;K8s API&lt;/div&gt;" style="rounded=1;whiteSpace=wrap;html=1;fillColor=#647687;fontColor=#ffffff;strokeColor=#314354;" vertex="1" parent="1">
          <mxGeometry x="446" y="560" width="120" height="40" as="geometry" />
        </mxCell>
        <mxCell id="g-rzYTZ_cfiE1wiw2gDc-25" style="edgeStyle=orthogonalEdgeStyle;rounded=0;orthogonalLoop=1;jettySize=auto;html=1;exitX=1;exitY=0.5;exitDx=0;exitDy=0;entryX=-0.027;entryY=0.517;entryDx=0;entryDy=0;entryPerimeter=0;strokeColor=#FFFFFF;" edge="1" parent="1" source="g-rzYTZ_cfiE1wiw2gDc-7" target="g-rzYTZ_cfiE1wiw2gDc-14">
          <mxGeometry relative="1" as="geometry" />
        </mxCell>
        <mxCell id="g-rzYTZ_cfiE1wiw2gDc-26" style="edgeStyle=orthogonalEdgeStyle;rounded=0;orthogonalLoop=1;jettySize=auto;html=1;exitX=0.5;exitY=1;exitDx=0;exitDy=0;" edge="1" parent="1" source="g-rzYTZ_cfiE1wiw2gDc-3" target="g-rzYTZ_cfiE1wiw2gDc-3">
          <mxGeometry relative="1" as="geometry" />
        </mxCell>
        <mxCell id="g-rzYTZ_cfiE1wiw2gDc-27" value="Mesh log processor" style="text;html=1;strokeColor=none;fillColor=none;align=center;verticalAlign=middle;whiteSpace=wrap;rounded=0;fontStyle=1" vertex="1" parent="1">
          <mxGeometry x="450" y="235" width="120" height="30" as="geometry" />
        </mxCell>
      </root>
    </mxGraphModel>
  </diagram>
</mxfile>
